solid OpenSCAD_Model
  facet normal 1 -0 0
    outer loop
      vertex 5 0 5
      vertex 5 2.5 0
      vertex 5 2.5 5
    endloop
  endfacet
  facet normal 1 0 0
    outer loop
      vertex 5 2.5 0
      vertex 5 0 5
      vertex 5 0 0
    endloop
  endfacet
  facet normal -1 0 0
    outer loop
      vertex 10 0 0
      vertex 10 2.5 5
      vertex 10 2.5 0
    endloop
  endfacet
  facet normal -1 -0 0
    outer loop
      vertex 10 2.5 5
      vertex 10 0 0
      vertex 10 0 5
    endloop
  endfacet
  facet normal 0 -1 0
    outer loop
      vertex 5 2.5 0
      vertex 10 2.5 5
      vertex 5 2.5 5
    endloop
  endfacet
  facet normal 0 -1 -0
    outer loop
      vertex 10 2.5 5
      vertex 5 2.5 0
      vertex 10 2.5 0
    endloop
  endfacet
  facet normal 1 -0 0
    outer loop
      vertex 30 0 5
      vertex 30 2.5 0
      vertex 30 2.5 5
    endloop
  endfacet
  facet normal 1 0 0
    outer loop
      vertex 30 2.5 0
      vertex 30 0 5
      vertex 30 0 0
    endloop
  endfacet
  facet normal -1 0 0
    outer loop
      vertex 35 0 0
      vertex 35 2.5 5
      vertex 35 2.5 0
    endloop
  endfacet
  facet normal -1 -0 0
    outer loop
      vertex 35 2.5 5
      vertex 35 0 0
      vertex 35 0 5
    endloop
  endfacet
  facet normal 0 -1 0
    outer loop
      vertex 30 2.5 0
      vertex 35 2.5 5
      vertex 30 2.5 5
    endloop
  endfacet
  facet normal 0 -1 -0
    outer loop
      vertex 35 2.5 5
      vertex 30 2.5 0
      vertex 35 2.5 0
    endloop
  endfacet
  facet normal -1 0 0
    outer loop
      vertex 0 0 0
      vertex 0 5 5
      vertex 0 5 0
    endloop
  endfacet
  facet normal -1 -0 0
    outer loop
      vertex 0 5 5
      vertex 0 0 0
      vertex 0 0 5
    endloop
  endfacet
  facet normal 0 0 1
    outer loop
      vertex 40 5 5
      vertex 35 2.5 5
      vertex 40 0 5
    endloop
  endfacet
  facet normal 0 0 1
    outer loop
      vertex 40 5 5
      vertex 30 2.5 5
      vertex 35 2.5 5
    endloop
  endfacet
  facet normal 0 0 1
    outer loop
      vertex 30 2.5 5
      vertex 10 2.5 5
      vertex 30 0 5
    endloop
  endfacet
  facet normal 0 0 1
    outer loop
      vertex 40 5 5
      vertex 10 2.5 5
      vertex 30 2.5 5
    endloop
  endfacet
  facet normal -0 0 1
    outer loop
      vertex 0 5 5
      vertex 10 2.5 5
      vertex 40 5 5
    endloop
  endfacet
  facet normal 0 0 1
    outer loop
      vertex 10 2.5 5
      vertex 0 5 5
      vertex 5 2.5 5
    endloop
  endfacet
  facet normal 0 0 1
    outer loop
      vertex 0 0 5
      vertex 5 2.5 5
      vertex 0 5 5
    endloop
  endfacet
  facet normal 0 0 1
    outer loop
      vertex 5 2.5 5
      vertex 0 0 5
      vertex 5 0 5
    endloop
  endfacet
  facet normal 0 0 1
    outer loop
      vertex 40 0 5
      vertex 35 2.5 5
      vertex 35 0 5
    endloop
  endfacet
  facet normal 0 0 1
    outer loop
      vertex 30 0 5
      vertex 10 2.5 5
      vertex 10 0 5
    endloop
  endfacet
  facet normal 1 -0 0
    outer loop
      vertex 40 0 5
      vertex 40 5 0
      vertex 40 5 5
    endloop
  endfacet
  facet normal 1 0 0
    outer loop
      vertex 40 5 0
      vertex 40 0 5
      vertex 40 0 0
    endloop
  endfacet
  facet normal 0 0 -1
    outer loop
      vertex 5 0 0
      vertex 0 0 0
      vertex 5 2.5 0
    endloop
  endfacet
  facet normal 0 0 -1
    outer loop
      vertex 30 0 0
      vertex 10 0 0
      vertex 30 2.5 0
    endloop
  endfacet
  facet normal 0 0 -1
    outer loop
      vertex 35 2.5 0
      vertex 40 0 0
      vertex 35 0 0
    endloop
  endfacet
  facet normal 0 0 -1
    outer loop
      vertex 40 0 0
      vertex 35 2.5 0
      vertex 40 5 0
    endloop
  endfacet
  facet normal 0 0 -1
    outer loop
      vertex 30 2.5 0
      vertex 40 5 0
      vertex 35 2.5 0
    endloop
  endfacet
  facet normal 0 0 -1
    outer loop
      vertex 10 2.5 0
      vertex 30 2.5 0
      vertex 10 0 0
    endloop
  endfacet
  facet normal 0 0 -1
    outer loop
      vertex 30 2.5 0
      vertex 10 2.5 0
      vertex 40 5 0
    endloop
  endfacet
  facet normal 0 0 -1
    outer loop
      vertex 0 5 0
      vertex 10 2.5 0
      vertex 5 2.5 0
    endloop
  endfacet
  facet normal 0 0 -1
    outer loop
      vertex 10 2.5 0
      vertex 0 5 0
      vertex 40 5 0
    endloop
  endfacet
  facet normal 0 0 -1
    outer loop
      vertex 0 5 0
      vertex 5 2.5 0
      vertex 0 0 0
    endloop
  endfacet
  facet normal 0 -1 0
    outer loop
      vertex 35 0 0
      vertex 40 0 5
      vertex 35 0 5
    endloop
  endfacet
  facet normal 0 -1 -0
    outer loop
      vertex 40 0 5
      vertex 35 0 0
      vertex 40 0 0
    endloop
  endfacet
  facet normal 0 -1 0
    outer loop
      vertex 0 0 0
      vertex 5 0 5
      vertex 0 0 5
    endloop
  endfacet
  facet normal 0 -1 -0
    outer loop
      vertex 5 0 5
      vertex 0 0 0
      vertex 5 0 0
    endloop
  endfacet
  facet normal 0 -1 0
    outer loop
      vertex 10 0 0
      vertex 30 0 5
      vertex 10 0 5
    endloop
  endfacet
  facet normal 0 -1 -0
    outer loop
      vertex 30 0 5
      vertex 10 0 0
      vertex 30 0 0
    endloop
  endfacet
  facet normal 0 1 -0
    outer loop
      vertex 40 5 0
      vertex 0 5 5
      vertex 40 5 5
    endloop
  endfacet
  facet normal 0 1 0
    outer loop
      vertex 0 5 5
      vertex 40 5 0
      vertex 0 5 0
    endloop
  endfacet
endsolid OpenSCAD_Model
